<svg xmlns="http://www.w3.org/2000/svg" x="0px" y="0px"
width="64" height="64"
viewBox="0 0 64 64">
<linearGradient id="vmFxbMxWjc9db9dMuTJpUa_-r8jdItIFK3f_gr1" x1="32" x2="32" y1="18.234" y2="21.256" gradientUnits="userSpaceOnUse"><stop offset="0" stop-color="#6dc7ff"></stop><stop offset="1" stop-color="#e6abff"></stop></linearGradient><rect width="34" height="4" x="15" y="18" fill="url(#vmFxbMxWjc9db9dMuTJpUa_-r8jdItIFK3f_gr1)"></rect><linearGradient id="vmFxbMxWjc9db9dMuTJpUb_-r8jdItIFK3f_gr2" x1="32" x2="32" y1="607.667" y2="602.649" gradientTransform="matrix(1 0 0 -1 0 654)" gradientUnits="userSpaceOnUse"><stop offset="0" stop-color="#6dc7ff"></stop><stop offset="1" stop-color="#e6abff"></stop></linearGradient><path fill="url(#vmFxbMxWjc9db9dMuTJpUb_-r8jdItIFK3f_gr2)" d="M28,47c0,2.209,1.791,4,4,4s4-1.791,4-4H28z"></path><linearGradient id="vmFxbMxWjc9db9dMuTJpUc_-r8jdItIFK3f_gr3" x1="32" x2="32" y1="6.574" y2="56.623" gradientUnits="userSpaceOnUse"><stop offset="0" stop-color="#1a6dff"></stop><stop offset="1" stop-color="#c822ff"></stop></linearGradient><path fill="url(#vmFxbMxWjc9db9dMuTJpUc_-r8jdItIFK3f_gr3)" d="M49,32.034V28h2.046C52.675,28,54,26.675,54,24.954C54,23.325,52.675,22,51.046,22H50v-9	c0-3.86-3.14-7-7-7H21c-3.86,0-7,3.14-7,7v9h-1.046C11.325,22,10,23.325,10,25.046C10,26.675,11.325,28,12.954,28H15v4.034	c-2.807,0.3-5,2.636-5,5.466c0,2.871,2.258,5.232,5.125,5.476C16.108,51.421,23.295,58,32,58s15.892-6.579,16.875-15.024	C51.742,42.732,54,40.371,54,37.5C54,34.67,51.807,32.334,49,32.034z M16,13c0-2.757,2.243-5,5-5h22c2.757,0,5,2.243,5,5v9H16V13z M12.954,26C12.428,26,12,25.572,12,24.954C12,24.428,12.428,24,12.954,24h38.092C51.572,24,52,24.428,52,25.046	C52,25.572,51.572,26,51.046,26H12.954z M47,28v2.042H35.024c-1.093,0-1.981,0.873-2.017,1.958h-2.013	c-0.034-1.085-0.921-1.958-2.014-1.958H17V28H47z M35.024,32.042L43,32.066v1.904c0,1.67-1.359,3.03-3.03,3.03h-1.51	C36.552,37,35,35.448,35,33.54L35.024,32.042z M21.084,32.042L29,32.063v1.491c0,1.9-1.546,3.446-3.446,3.446h-1.474	c-1.664,0-3.017-1.353-3.017-3.017L21.084,32.042z M12,37.5c0-1.727,1.3-3.156,3-3.44v2.032C14.843,36.036,14.676,36,14.5,36	c-0.828,0-1.5,0.672-1.5,1.5s0.672,1.5,1.5,1.5c0.176,0,0.343-0.036,0.5-0.092v2.032C13.3,40.656,12,39.227,12,37.5z M39,54.256	c-0.639,0.339-1.31,0.623-2,0.868V54h-2v1.698c-0.651,0.133-1.322,0.207-2,0.252V53h-2v2.949c-0.678-0.045-1.349-0.119-2-0.252V54	h-2v1.125c-0.69-0.245-1.361-0.529-2-0.868v-7.223c0-1.18,1.035-2.14,2.307-2.14h9.386c1.272,0,2.307,0.96,2.307,2.14V54.256z M41,52.971v-5.938c0-2.283-1.932-4.14-4.307-4.14h-9.386c-2.375,0-4.307,1.857-4.307,4.14v5.938c-3.635-2.74-6-7.079-6-11.971	v-8.958h2.066c0,0.007-0.002,0.013-0.002,0.021v1.92c0,2.766,2.25,5.017,5.017,5.017h1.474c2.852,0,5.195-2.205,5.423-5h2.046	c0.235,2.796,2.582,5,5.437,5h1.51c2.773,0,5.03-2.256,5.03-5.03v-1.904c0-0.008-0.002-0.016-0.002-0.024H47V41	C47,45.892,44.635,50.232,41,52.971z M49,40.94v-2.032C49.157,38.964,49.324,39,49.5,39c0.828,0,1.5-0.672,1.5-1.5	S50.328,36,49.5,36c-0.176,0-0.343,0.036-0.5,0.092V34.06c1.7,0.284,3,1.713,3,3.44S50.7,40.656,49,40.94z"></path>
</svg>